<svg version="1.2" xmlns="http://www.w3.org/2000/svg" viewBox="0 0 77 69" width="77" height="69"><style>.a{fill:#231f20}.b{fill:#bf935b}.c{fill:#fff}.d{fill:#918f90}.e{fill:#6f4324}.f{fill:#f68290}.g{fill:#f9b29e}</style><path class="a" d="m172.4 66.1q-2.5 0-5-0.4c-1.3-0.2-2.6-0.4-3.8-0.7-1.6-0.4-3.2-0.8-4.6-0.8-1.6 0-3.1 0.4-4.8 0.8-1 0.2-2.1 0.4-3.2 0.6q-0.6 0.1-1.1 0.2-1.9 0.3-3.5 0.3-1 0-1.9-0.1-2.5-0.1-4.9-0.5c-5.1-1-8.9-4.2-10.4-8.6-1.6-5.1-1.2-9.4 1.2-12.2q-0.4-0.3-0.7-0.6c-1.6-1.4-3.4-3.3-4.6-5.9-2.6-5.8-1.8-14.4 4.1-18.9 2-1.6 4.4-2 6.4-2.2v-0.5c0-2.3 0-5.5 2-8.1 1.6-2.2 4.2-3.6 7.8-4.5 1.4-0.3 3-0.7 4.8-0.7 2 0 3.9 0.5 5.6 1.5l0.6 0.3c0.7 0.4 1.5 0.9 2.3 1.5 0.2-0.1 0.8-0.6 0.8-0.6 2.5-1.7 5.4-2.6 8.5-2.6q2.1 0 4.1 0.5c2.1 0.6 5.3 1.4 7.5 3.9 2.4 2.7 2.5 6.3 2.5 8.2q0 0.2 0 0.8 0 0.2-0.1 0.3c2.1 0.2 4.5 0.6 6.6 2.2 5.8 4.5 6.6 13.1 4 18.9-1.1 2.5-3 4.4-4.3 5.7q-0.5 0.4-1 0.9c1.1 1.3 2 3 2.1 5.4 0.2 2.1-0.1 4.3-0.9 6.7-1.9 5.9-7.6 9.2-16.1 9.2z"/><path class="b" d="m186.4 22.1c-2.1-1.6-5.1-1.3-7.5-1.7-0.7-0.1-0.4-3.9-0.4-4.3 0-2.1-0.2-4.3-1.6-6-1.4-1.6-3.7-2.2-5.7-2.7-3.3-0.9-6.8-0.4-9.7 1.5-0.7 0.6-1.4 1.1-2.3 1.2-1 0.2-1.8-0.1-2.5-0.6-0.9-0.7-1.8-1.1-2.7-1.7-2.6-1.4-5.1-1-7.8-0.3-2.1 0.5-4.4 1.3-5.7 3.1-1.4 1.9-1.3 4.4-1.3 6.5 0 0.7 0.3 2.7-0.2 3.2q-0.1 0.1-0.1 0.1c-2.5 0.4-5.5 0.1-7.6 1.7-4.2 3.3-5.1 9.9-3 14.6 0.9 1.9 2.3 3.4 3.8 4.7 0.9 0.9 3.7 2.2 2.8 3.8-0.2 0.5-0.7 0.8-1 1.1-2.9 2.2-2.3 6.5-1.3 9.5 1.1 3.4 4.2 5.5 7.6 6.2q2.3 0.3 4.6 0.4c1.6 0.2 3.1 0.1 4.6-0.2q0.5 0 1-0.1c2.9-0.4 5.5-1.4 8.5-1.4 3-0.1 6 1.1 9 1.5 5.9 0.8 15 0.5 17.2-6.4 0.6-1.7 0.9-3.6 0.8-5.4-0.2-2.3-1.3-3.4-2.8-5-0.3-0.2-0.5-0.4-0.5-0.7-0.1-0.4 0-0.7 0.3-0.9 0.3-0.4 0.8-0.6 1.1-0.9q1-0.8 1.9-1.7c1.4-1.3 2.7-2.7 3.5-4.5 2.1-4.7 1.2-11.3-3-14.6z"/><path class="c" d="m186.4 22.1c-2.1-1.6-5.1-1.3-7.5-1.7-0.7-0.1-0.4-3.9-0.4-4.3 0-2.1-0.2-4.3-1.6-6-1.4-1.6-3.7-2.2-5.7-2.7-3.3-0.9-6.8-0.4-9.7 1.5-0.7 0.6-1.4 1.1-2.3 1.2-1 0.2-1.8-0.1-2.5-0.6-0.9-0.7-1.8-1.1-2.7-1.7-2.6-1.4-5.1-1-7.8-0.3-2.1 0.5-4.4 1.3-5.7 3.1-1.4 1.9-1.3 4.4-1.3 6.5 0 0.7 0.3 2.7-0.2 3.2q-0.1 0.1-0.1 0.1c-2.5 0.4-5.5 0.1-7.6 1.7-4.2 3.3-5.1 9.9-3 14.6 0.9 1.9 2.3 3.4 3.8 4.7 0.9 0.9 3.7 2.2 2.8 3.8-0.2 0.5-0.7 0.8-1 1.1-2.9 2.2-2.3 6.5-1.3 9.5 1.1 3.4 4.2 5.5 7.6 6.2q2.3 0.3 4.6 0.4c1.6 0.2 3.1 0.1 4.6-0.2q0.5 0 1-0.1c2.9-0.4 5.5-1.4 8.5-1.4 3-0.1 6 1.1 9 1.5 5.9 0.8 15 0.5 17.2-6.4 0.6-1.7 0.9-3.6 0.8-5.4-0.2-2.3-1.3-3.4-2.8-5-0.3-0.2-0.5-0.4-0.5-0.7-0.1-0.4 0-0.7 0.3-0.9 0.3-0.4 0.8-0.6 1.1-0.9q1-0.8 1.9-1.7c1.4-1.3 2.7-2.7 3.5-4.5 2.1-4.7 1.2-11.3-3-14.6z"/><path class="d" d="m186.4 22.1c-2.1-1.5-5-1.4-7.4-1.7-5.1 8.1-9.9 16.3-13 25.2-1.3 3.8-2.4 7.9-1.2 11.8 0.5 1.8 1.4 3.4 2.7 4.7q0.2 0.1 0.4 0.1c5.9 0.8 15 0.5 17.2-6.4 0.6-1.7 0.9-3.6 0.8-5.4-0.2-2.3-1.3-3.4-2.8-5-0.3-0.2-0.5-0.4-0.5-0.7-0.1-0.4 0-0.7 0.3-0.9 0.3-0.4 0.8-0.6 1.1-0.9q1-0.8 1.9-1.7c1.4-1.3 2.7-2.7 3.5-4.5 2.1-4.7 1.2-11.3-3-14.6z"/><path class="e" d="m160.6 9.6c-0.4 0.2-0.9 0.4-1.4 0.5-1 0.2-1.8-0.1-2.5-0.6-0.9-0.7-1.8-1.1-2.7-1.7-2.6-1.4-5.1-1-7.8-0.3-2.1 0.5-4.4 1.3-5.7 3.1-1.4 1.9-1.3 4.4-1.3 6.5 0 0.7 0.3 2.7-0.2 3.2q-0.1 0.1-0.1 0.1c-2.5 0.4-5.5 0.1-7.6 1.7-4.2 3.3-5.1 9.9-3 14.6 0.9 1.9 2.3 3.4 3.8 4.7 0.9 0.9 3.7 2.2 2.8 3.8-0.2 0.5-0.7 0.8-1 1.1q-0.1 0-0.1 0 0.2 0 0.5 0c2.9 0.3 5.9 0.3 8.7-0.6 2.3-0.8 4.5-2.1 6.5-3.5 3.2-2.1 6.4-4.4 8.4-7.7 2-3.3 2.4-7.3 2.7-11.2 0.3-4.6 0.4-9.2 0-13.7z"/><path class="f" d="m154.8 19.9c1 3.7-0.2 7.2-2.6 7.9-2.4 0.6-5.2-1.8-6.2-5.4-1-3.7 0.1-7.2 2.5-7.9 2.5-0.6 5.3 1.8 6.3 5.4z"/><path class="f" d="m170.9 22.1c-1 3.7-3.7 6.1-6.2 5.5-2.4-0.6-3.6-4.1-2.6-7.8 0.9-3.7 3.7-6.1 6.1-5.5 2.5 0.7 3.6 4.2 2.7 7.8z"/><path class="f" d="m182.2 35.5c-1.9 3.3-5.2 4.9-7.4 3.6-2.2-1.2-2.4-4.9-0.5-8.2 1.9-3.3 5.2-4.9 7.4-3.6 2.2 1.2 2.4 4.9 0.5 8.2z"/><path class="f" d="m142.7 31c1.8 3.3 1.3 7-0.9 8.1-2.2 1.2-5.5-0.6-7.2-4-1.7-3.4-1.3-7 0.9-8.2 2.3-1.1 5.5 0.7 7.2 4.1z"/><path class="f" d="m173.8 47.3c-0.5-1.4-1.6-2.5-2.7-3.4-1.9-1.7-3.5-3.7-4.7-6-0.7-1.2-0.9-2.4-1.3-3.7-0.3-1.3-0.8-2.4-1.8-3.2-1.4-1.2-3.2-2.1-5.1-2.2-1.9 0.1-3.7 1-5.1 2.2-1 0.8-1.5 1.9-1.9 3.2-0.3 1.3-0.5 2.5-1.2 3.7-1.3 2.3-2.8 4.3-4.7 6-1.1 0.9-2.2 2-2.7 3.4-0.8 2.6 1 6.2 3.5 7.2 2.2 0.8 5.6-0.3 8-1.2 1.7-0.6 2.8-1.2 4.1-1.3 1.3 0.1 2.4 0.7 4 1.3 2.5 0.9 5.9 2 8.1 1.2 2.5-1 4.3-4.6 3.5-7.2z"/><path class="a" d="m52.6 66.5q-2.4 0-4.9-0.4c-1.4-0.2-2.6-0.5-3.8-0.8-1.6-0.3-3.2-0.7-4.6-0.7-1.6 0-3.2 0.4-4.8 0.7-1 0.3-2.1 0.5-3.3 0.7q-0.5 0.1-1.1 0.1c-1.2 0.2-2.4 0.3-3.5 0.3q-0.9 0-1.8-0.1-2.6-0.1-4.9-0.5c-5.1-0.9-9-4.1-10.4-8.5-1.7-5.1-1.2-9.4 1.2-12.3q-0.4-0.3-0.8-0.6c-1.5-1.4-3.4-3.3-4.5-5.8-2.6-5.8-1.8-14.4 4-18.9 2.1-1.6 4.4-2 6.5-2.2v-0.5c0-2.3 0-5.5 2-8.2 1.6-2.1 4.1-3.6 7.7-4.4 1.5-0.4 3.1-0.7 4.9-0.7 2 0 3.8 0.4 5.5 1.4l0.7 0.4c0.7 0.4 1.5 0.8 2.3 1.4 0.2-0.1 0.8-0.5 0.8-0.5 2.5-1.7 5.4-2.6 8.5-2.6q2.1 0 4.1 0.5c2.1 0.6 5.3 1.4 7.4 3.8 2.5 2.8 2.5 6.3 2.6 8.3 0 0.1 0 0.4-0.1 0.7q0 0.2 0 0.4c2.1 0.2 4.5 0.6 6.5 2.2 5.9 4.5 6.7 13.1 4.1 18.9-1.1 2.5-3 4.4-4.3 5.6q-0.5 0.5-1.1 0.9c1.1 1.4 2 3 2.2 5.4q0.2 3.2-0.9 6.8c-1.9 5.9-7.7 9.2-16.2 9.2z"/><path class="a" d="m66.7 22.5c-2.1-1.6-5.1-1.4-7.6-1.7-0.6-0.1-0.3-3.9-0.3-4.4 0-2-0.2-4.3-1.6-5.9-1.4-1.6-3.7-2.2-5.7-2.8-3.3-0.8-6.9-0.3-9.7 1.6-0.7 0.5-1.4 1.1-2.4 1.2-0.9 0.2-1.7-0.1-2.4-0.7-0.9-0.6-1.8-1.1-2.7-1.6-2.6-1.5-5.1-1-7.8-0.4-2.1 0.5-4.4 1.4-5.8 3.2-1.4 1.8-1.2 4.3-1.2 6.5 0 0.7 0.3 2.6-0.3 3.2q0 0.1-0.1 0.1c-2.4 0.3-5.4 0.1-7.5 1.7-4.2 3.2-5.1 9.9-3 14.6 0.8 1.8 2.2 3.3 3.7 4.7 1 0.8 3.8 2.2 2.9 3.8-0.3 0.4-0.7 0.7-1.1 1-2.8 2.2-2.2 6.6-1.2 9.6 1.1 3.4 4.2 5.5 7.6 6.1q2.2 0.4 4.6 0.5c1.6 0.2 3.1 0.1 4.5-0.2q0.6 0 1.1-0.1c2.8-0.5 5.5-1.4 8.4-1.5 3.1 0 6 1.1 9 1.6 6 0.8 15.1 0.4 17.3-6.4 0.6-1.8 0.9-3.6 0.8-5.4-0.2-2.3-1.3-3.4-2.9-5-0.2-0.2-0.4-0.4-0.5-0.8 0-0.3 0.1-0.6 0.3-0.9 0.4-0.3 0.8-0.6 1.2-0.9q0.9-0.8 1.8-1.6c1.4-1.3 2.8-2.7 3.6-4.5 2.1-4.7 1.2-11.4-3-14.6z"/><path class="f" d="m35.5 19.9c1 3.7-0.2 7.2-2.6 7.9-2.4 0.6-5.2-1.8-6.2-5.4-1-3.7 0.1-7.2 2.5-7.9 2.5-0.6 5.3 1.8 6.3 5.4z"/><path class="f" d="m51.6 22.1c-1 3.7-3.7 6.1-6.2 5.5-2.4-0.6-3.6-4.1-2.6-7.8 0.9-3.7 3.7-6.1 6.1-5.5 2.4 0.7 3.6 4.2 2.7 7.8z"/><path class="f" d="m62.9 35.5c-1.9 3.3-5.2 4.9-7.4 3.6-2.2-1.2-2.4-4.9-0.5-8.2 1.9-3.3 5.2-4.9 7.4-3.6 2.2 1.2 2.4 4.9 0.5 8.2z"/><path class="f" d="m23.4 31c1.8 3.3 1.3 7-0.9 8.1-2.3 1.2-5.5-0.6-7.2-4-1.7-3.4-1.3-7 0.9-8.2 2.3-1.1 5.5 0.7 7.2 4.1z"/><path class="f" d="m54.5 47.3c-0.5-1.4-1.6-2.5-2.7-3.4-1.9-1.7-3.5-3.7-4.7-6-0.7-1.2-0.9-2.4-1.3-3.7-0.3-1.3-0.8-2.4-1.8-3.2-1.4-1.2-3.2-2.1-5.1-2.2-1.9 0.1-3.7 1-5.1 2.2-1 0.8-1.6 1.9-1.9 3.2-0.3 1.3-0.5 2.5-1.2 3.7-1.3 2.3-2.9 4.3-4.7 6-1.1 0.9-2.2 2-2.7 3.4-0.9 2.6 1 6.2 3.5 7.2 2.2 0.8 5.6-0.3 8-1.2 1.6-0.6 2.8-1.2 4.1-1.3 1.3 0.1 2.4 0.7 4 1.3 2.5 0.9 5.9 2 8.1 1.2 2.5-1 4.3-4.6 3.5-7.2z"/><path class="a" d="m171.8-40.7q-2.5 0-5-0.3c-1.3-0.2-2.5-0.5-3.7-0.8-1.7-0.4-3.3-0.7-4.7-0.7-1.6 0-3.1 0.4-4.8 0.7-1 0.3-2.1 0.5-3.2 0.7q-0.6 0.1-1.1 0.1-1.9 0.3-3.5 0.3-1 0-1.9-0.1-2.5-0.1-4.9-0.5c-5-0.9-8.9-4.1-10.4-8.5-1.6-5.1-1.2-9.5 1.2-12.3q-0.4-0.3-0.7-0.6c-1.5-1.4-3.4-3.3-4.6-5.8-2.6-5.8-1.8-14.4 4.1-18.9 2-1.6 4.4-2 6.4-2.2v-0.5c0-2.3 0-5.5 2-8.2 1.7-2.1 4.2-3.6 7.8-4.4 1.4-0.4 3.1-0.8 4.8-0.8 2.1 0 3.9 0.5 5.6 1.5l0.6 0.4c0.8 0.4 1.6 0.8 2.4 1.4 0.1-0.1 0.7-0.5 0.7-0.5 2.5-1.7 5.4-2.6 8.5-2.6q2.1 0 4.1 0.5c2.1 0.6 5.3 1.4 7.5 3.8 2.4 2.7 2.5 6.3 2.5 8.3 0 0.1 0 0.4 0 0.7q0 0.2 0 0.4c2 0.2 4.4 0.6 6.5 2.2 5.8 4.5 6.6 13.1 4 18.9-1.1 2.5-3 4.4-4.3 5.6q-0.5 0.5-1 0.9c1.1 1.4 2 3 2.1 5.4q0.3 3.2-0.9 6.8c-1.9 5.9-7.6 9.1-16.1 9.1z"/><path class="a" d="m185.8-84.6c-2.1-1.6-5-1.4-7.5-1.7-0.7-0.1-0.3-3.9-0.4-4.4 0-2-0.1-4.3-1.6-5.9-1.4-1.6-3.7-2.2-5.7-2.8-3.3-0.8-6.8-0.4-9.6 1.6-0.8 0.5-1.5 1-2.4 1.2-1 0.2-1.7-0.1-2.5-0.7-0.8-0.6-1.8-1.1-2.7-1.6-2.6-1.5-5.1-1-7.8-0.4-2.1 0.5-4.4 1.4-5.7 3.2-1.4 1.8-1.3 4.3-1.3 6.5 0 0.7 0.3 2.6-0.2 3.2q-0.1 0.1-0.1 0.1c-2.5 0.3-5.5 0.1-7.6 1.7-4.2 3.2-5.1 9.9-2.9 14.6 0.8 1.8 2.2 3.3 3.7 4.7 0.9 0.8 3.7 2.2 2.8 3.8-0.2 0.4-0.6 0.7-1 1-2.9 2.2-2.3 6.5-1.3 9.6 1.1 3.4 4.2 5.5 7.7 6.1q2.2 0.4 4.5 0.5c1.6 0.2 3.1 0.1 4.6-0.2q0.5 0 1-0.1c2.9-0.5 5.6-1.4 8.5-1.5 3 0 6 1.1 9 1.6 5.9 0.8 15 0.4 17.2-6.4 0.6-1.8 0.9-3.6 0.8-5.4-0.2-2.3-1.3-3.4-2.8-5-0.2-0.2-0.5-0.5-0.5-0.8-0.1-0.3 0.1-0.6 0.3-0.9 0.3-0.3 0.8-0.6 1.1-0.9q1-0.8 1.9-1.6c1.4-1.3 2.7-2.8 3.5-4.5 2.1-4.7 1.2-11.4-3-14.6z"/><path class="a" d="m53.2-40.7q-2.4 0-5-0.3c-1.3-0.2-2.5-0.5-3.7-0.8-1.7-0.3-3.2-0.7-4.7-0.7-1.5 0-3.1 0.4-4.7 0.7-1.1 0.3-2.1 0.5-3.3 0.7q-0.5 0.1-1.1 0.1-1.8 0.3-3.5 0.3-0.9 0-1.8-0.1-2.6-0.1-4.9-0.5c-5.1-0.9-9-4.1-10.4-8.5-1.7-5.1-1.2-9.5 1.2-12.3q-0.4-0.3-0.8-0.6c-1.5-1.4-3.4-3.3-4.5-5.8-2.6-5.8-1.8-14.4 4-18.9 2.1-1.6 4.4-2 6.5-2.2v-0.5c0-2.3 0-5.5 2-8.2 1.6-2.1 4.1-3.6 7.7-4.4 1.4-0.4 3.1-0.8 4.9-0.8 2 0 3.8 0.5 5.5 1.5l0.7 0.4c0.7 0.4 1.5 0.8 2.3 1.4 0.1-0.1 0.8-0.5 0.8-0.5 2.4-1.7 5.4-2.6 8.5-2.6q2.1 0 4.1 0.5c2.1 0.6 5.2 1.4 7.4 3.8 2.4 2.7 2.5 6.3 2.5 8.3 0 0.1 0 0.4 0 0.7q0 0.2 0 0.4c2.1 0.2 4.5 0.6 6.5 2.2 5.9 4.5 6.7 13.1 4.1 18.9-1.2 2.5-3 4.4-4.4 5.6q-0.5 0.5-1 0.9c1.1 1.4 2 3 2.2 5.4q0.2 3.2-0.9 6.8c-1.9 5.9-7.7 9.1-16.2 9.1z"/><path class="a" d="m67.3-84.6c-2.1-1.6-5.1-1.4-7.6-1.7-0.6-0.1-0.3-3.9-0.3-4.4-0.1-2-0.2-4.3-1.6-5.9-1.5-1.6-3.7-2.2-5.7-2.8-3.3-0.8-6.9-0.4-9.7 1.6-0.8 0.5-1.4 1-2.4 1.2-0.9 0.2-1.7-0.1-2.5-0.7-0.8-0.6-1.7-1.1-2.6-1.6-2.6-1.5-5.1-1-7.9-0.4-2 0.5-4.3 1.4-5.7 3.2-1.4 1.8-1.3 4.3-1.3 6.5 0 0.7 0.4 2.6-0.2 3.2q0 0.1-0.1 0.1c-2.5 0.3-5.4 0.1-7.5 1.7-4.2 3.2-5.1 9.9-3 14.6 0.8 1.8 2.2 3.3 3.7 4.7 0.9 0.8 3.8 2.2 2.9 3.8-0.3 0.4-0.7 0.7-1.1 1-2.8 2.2-2.2 6.5-1.2 9.6 1.1 3.4 4.2 5.5 7.6 6.1q2.2 0.4 4.5 0.5c1.6 0.2 3.1 0.1 4.6-0.2q0.6 0 1.1-0.1c2.8-0.5 5.5-1.4 8.4-1.5 3.1 0 6 1.1 9 1.6 6 0.8 15.1 0.4 17.3-6.4 0.5-1.8 0.9-3.6 0.7-5.4-0.1-2.3-1.2-3.4-2.8-5-0.2-0.2-0.4-0.5-0.5-0.8 0-0.3 0.1-0.6 0.3-0.9 0.4-0.3 0.8-0.6 1.2-0.9q0.9-0.8 1.8-1.6c1.4-1.3 2.8-2.8 3.5-4.5 2.2-4.7 1.3-11.4-2.9-14.6z"/><path class="c" d="m67.3-84.6c-2.1-1.6-5.1-1.4-7.6-1.7-0.6-0.1-0.3-3.9-0.3-4.4-0.1-2-0.2-4.3-1.6-5.9-1.5-1.6-3.7-2.2-5.7-2.8-3.3-0.8-6.9-0.4-9.7 1.6-0.8 0.5-1.4 1-2.4 1.2-0.9 0.2-1.7-0.1-2.5-0.7-0.8-0.6-1.7-1.1-2.6-1.6-2.6-1.5-5.1-1-7.9-0.4-2 0.5-4.3 1.4-5.7 3.2-1.4 1.8-1.3 4.3-1.3 6.5 0 0.7 0.4 2.6-0.2 3.2q0 0.1-0.1 0.1c-2.5 0.3-5.4 0.1-7.5 1.7-4.2 3.2-5.1 9.9-3 14.6 0.8 1.8 2.2 3.3 3.7 4.7 0.9 0.8 3.8 2.2 2.9 3.8-0.3 0.4-0.7 0.7-1.1 1-2.8 2.2-2.2 6.5-1.2 9.6 1.1 3.4 4.2 5.5 7.6 6.1q2.2 0.4 4.5 0.5c1.6 0.2 3.1 0.1 4.6-0.2q0.6 0 1.1-0.1c2.8-0.5 5.5-1.4 8.4-1.5 3.1 0 6 1.1 9 1.6 6 0.8 15.1 0.4 17.3-6.4 0.5-1.8 0.9-3.6 0.7-5.4-0.1-2.3-1.2-3.4-2.8-5-0.2-0.2-0.4-0.5-0.5-0.8 0-0.3 0.1-0.6 0.3-0.9 0.4-0.3 0.8-0.6 1.2-0.9q0.9-0.8 1.8-1.6c1.4-1.3 2.8-2.8 3.5-4.5 2.2-4.7 1.3-11.4-2.9-14.6z"/><path class="b" d="m67.3-84.6c-2.1-1.6-5.1-1.4-7.6-1.7-0.6-0.1-0.3-3.9-0.3-4.4-0.1-2-0.2-4.3-1.6-5.9-1.5-1.6-3.7-2.2-5.7-2.8-3.3-0.8-6.9-0.4-9.7 1.6-0.8 0.5-1.4 1-2.4 1.2-0.9 0.2-1.7-0.1-2.5-0.7-0.8-0.6-1.7-1.1-2.6-1.6-2.6-1.5-5.1-1-7.9-0.4-2 0.5-4.3 1.4-5.7 3.2-1.4 1.8-1.3 4.3-1.3 6.5 0 0.7 0.4 2.6-0.2 3.2q0 0.1-0.1 0.1c-2.5 0.3-5.4 0.1-7.5 1.7-4.2 3.2-5.1 9.9-3 14.6 0.8 1.8 2.2 3.3 3.7 4.7 0.9 0.8 3.8 2.2 2.9 3.8-0.3 0.4-0.7 0.7-1.1 1-2.8 2.2-2.2 6.5-1.2 9.6 1.1 3.4 4.2 5.5 7.6 6.1q2.2 0.4 4.5 0.5c1.6 0.2 3.1 0.1 4.6-0.2q0.6 0 1.1-0.1c2.8-0.5 5.5-1.4 8.4-1.5 3.1 0 6 1.1 9 1.6 6 0.8 15.1 0.4 17.3-6.4 0.5-1.8 0.9-3.6 0.7-5.4-0.1-2.3-1.2-3.4-2.8-5-0.2-0.2-0.4-0.5-0.5-0.8 0-0.3 0.1-0.6 0.3-0.9 0.4-0.3 0.8-0.6 1.2-0.9q0.9-0.8 1.8-1.6c1.4-1.3 2.8-2.8 3.5-4.5 2.2-4.7 1.3-11.4-2.9-14.6z"/><path class="g" d="m35.6-86.8c1 3.7-0.1 7.2-2.5 7.8-2.5 0.7-5.3-1.7-6.3-5.4-1-3.6 0.2-7.1 2.6-7.8 2.4-0.7 5.2 1.8 6.2 5.4z"/><path class="g" d="m51.7-84.6c-0.9 3.7-3.7 6.1-6.1 5.5-2.5-0.7-3.6-4.2-2.7-7.8 1-3.7 3.7-6.1 6.2-5.5 2.4 0.6 3.6 4.1 2.6 7.8z"/><path class="g" d="m63-71.3c-1.9 3.3-5.2 4.9-7.4 3.7-2.1-1.3-2.4-5-0.4-8.2 1.9-3.3 5.2-4.9 7.3-3.7 2.2 1.3 2.4 5 0.5 8.2z"/><path class="g" d="m23.6-75.8c1.7 3.4 1.3 7.1-0.9 8.2-2.3 1.2-5.5-0.6-7.2-4-1.8-3.4-1.3-7.1 0.9-8.2 2.2-1.2 5.5 0.6 7.2 4z"/><path class="g" d="m54.6-59.4c-0.4-1.4-1.6-2.5-2.6-3.5-1.9-1.7-3.5-3.7-4.7-5.9-0.7-1.3-1-2.4-1.3-3.8-0.3-1.2-0.8-2.3-1.8-3.2-1.4-1.2-3.3-2.1-5.1-2.1-1.9 0-3.7 0.9-5.2 2.1-1 0.9-1.5 2-1.8 3.2-0.3 1.4-0.6 2.5-1.3 3.8-1.2 2.2-2.8 4.2-4.7 5.9-1 1-2.2 2.1-2.6 3.5-0.9 2.6 1 6.2 3.5 7.2 2.1 0.8 5.5-0.3 8-1.2 1.6-0.6 2.7-1.2 4.1-1.3 1.3 0.1 2.4 0.7 4 1.3 2.5 0.9 5.9 2 8 1.2 2.5-1 4.4-4.6 3.5-7.2z"/><path class="c" d="m185.8-84.6c-2.1-1.6-5-1.4-7.5-1.7-0.7-0.1-0.3-3.9-0.4-4.4 0-2-0.1-4.3-1.6-5.9-1.4-1.6-3.7-2.2-5.7-2.8-3.3-0.8-6.8-0.4-9.6 1.6-0.8 0.5-1.5 1-2.4 1.2-1 0.2-1.7-0.1-2.5-0.7-0.8-0.6-1.8-1.1-2.7-1.6-2.6-1.5-5.1-1-7.8-0.4-2.1 0.5-4.4 1.4-5.7 3.2-1.4 1.8-1.3 4.3-1.3 6.5 0 0.7 0.3 2.6-0.2 3.2q-0.1 0.1-0.1 0.1c-2.5 0.3-5.5 0.1-7.6 1.7-4.2 3.2-5.1 9.9-2.9 14.6 0.8 1.8 2.2 3.3 3.7 4.7 0.9 0.8 3.7 2.2 2.8 3.8-0.2 0.4-0.6 0.7-1 1-2.9 2.2-2.3 6.5-1.3 9.6 1.1 3.4 4.2 5.5 7.7 6.1q2.2 0.4 4.5 0.5c1.6 0.2 3.1 0.1 4.6-0.2q0.5 0 1-0.1c2.9-0.5 5.6-1.4 8.5-1.5 3 0 6 1.1 9 1.6 5.9 0.8 15 0.4 17.2-6.4 0.6-1.8 0.9-3.6 0.8-5.4-0.2-2.3-1.3-3.4-2.8-5-0.2-0.2-0.5-0.5-0.5-0.8-0.1-0.3 0.1-0.6 0.3-0.9 0.3-0.3 0.8-0.6 1.1-0.9q1-0.8 1.9-1.6c1.4-1.3 2.7-2.8 3.5-4.5 2.1-4.7 1.2-11.4-3-14.6z"/><path class="c" d="m185.8-84.6c-2.1-1.6-5-1.4-7.5-1.7-0.7-0.1-0.3-3.9-0.4-4.4 0-2-0.1-4.3-1.6-5.9-1.4-1.6-3.7-2.2-5.7-2.8-3.3-0.8-6.8-0.4-9.6 1.6-0.8 0.5-1.5 1-2.4 1.2-1 0.2-1.7-0.1-2.5-0.7-0.8-0.6-1.8-1.1-2.7-1.6-2.6-1.5-5.1-1-7.8-0.4-2.1 0.5-4.4 1.4-5.7 3.2-1.4 1.8-1.3 4.3-1.3 6.5 0 0.7 0.3 2.6-0.2 3.2q-0.1 0.1-0.1 0.1c-2.5 0.3-5.5 0.1-7.6 1.7-4.2 3.2-5.1 9.9-2.9 14.6 0.8 1.8 2.2 3.3 3.7 4.7 0.9 0.8 3.7 2.2 2.8 3.8-0.2 0.4-0.6 0.7-1 1-2.9 2.2-2.3 6.5-1.3 9.6 1.1 3.4 4.2 5.5 7.7 6.1q2.2 0.4 4.5 0.5c1.6 0.2 3.1 0.1 4.6-0.2q0.5 0 1-0.1c2.9-0.5 5.6-1.4 8.5-1.5 3 0 6 1.1 9 1.6 5.9 0.8 15 0.4 17.2-6.4 0.6-1.8 0.9-3.6 0.8-5.4-0.2-2.3-1.3-3.4-2.8-5-0.2-0.2-0.5-0.5-0.5-0.8-0.1-0.3 0.1-0.6 0.3-0.9 0.3-0.3 0.8-0.6 1.1-0.9q1-0.8 1.9-1.6c1.4-1.3 2.7-2.8 3.5-4.5 2.1-4.7 1.2-11.4-3-14.6z"/><path class="f" d="m154.2-86.8c1 3.7-0.2 7.2-2.6 7.8-2.4 0.7-5.2-1.7-6.2-5.4-1-3.6 0.1-7.1 2.6-7.8 2.4-0.7 5.2 1.8 6.2 5.4z"/><path class="f" d="m170.3-84.6c-1 3.7-3.7 6.1-6.2 5.5-2.4-0.7-3.6-4.2-2.6-7.8 0.9-3.7 3.7-6.1 6.1-5.5 2.5 0.6 3.7 4.1 2.7 7.8z"/><path class="f" d="m181.6-71.3c-1.9 3.3-5.2 4.9-7.4 3.7-2.2-1.3-2.4-5-0.5-8.2 1.9-3.3 5.2-4.9 7.4-3.7 2.2 1.3 2.4 5 0.5 8.2z"/><path class="f" d="m142.1-75.8c1.8 3.4 1.4 7.1-0.9 8.2-2.2 1.2-5.4-0.6-7.2-4-1.7-3.4-1.3-7.1 1-8.2 2.2-1.2 5.4 0.6 7.1 4z"/><path class="f" d="m173.2-59.4c-0.5-1.4-1.6-2.5-2.7-3.5-1.8-1.7-3.4-3.7-4.7-5.9-0.7-1.3-0.9-2.4-1.2-3.8-0.3-1.2-0.9-2.3-1.9-3.2-1.4-1.2-3.2-2.1-5.1-2.1-1.9 0-3.7 0.9-5.1 2.1-1 0.9-1.5 2-1.8 3.2-0.4 1.4-0.6 2.5-1.3 3.8-1.2 2.2-2.8 4.2-4.7 5.9-1.1 1-2.2 2.1-2.7 3.5-0.8 2.6 1 6.2 3.5 7.2 2.2 0.8 5.6-0.3 8.1-1.3 1.6-0.5 2.7-1.1 4-1.2 1.3 0.1 2.5 0.7 4.1 1.2 2.4 1 5.8 2.1 8 1.3 2.5-1 4.4-4.6 3.5-7.2z"/></svg>